<?xml version="1.0" encoding="UTF-8"?>
<!DOCTYPE svg PUBLIC "-//W3C//DTD SVG 1.1//EN" "http://www.w3.org/Graphics/SVG/1.1/DTD/svg11.dtd">
<!-- Creator: CorelDRAW 2018 (64 Bit) -->
<svg xmlns="http://www.w3.org/2000/svg" xml:space="preserve" width="1000mm" height="273mm" version="1.1" style="shape-rendering:geometricPrecision; text-rendering:geometricPrecision; image-rendering:optimizeQuality; fill-rule:evenodd; clip-rule:evenodd"
viewBox="0 0 100000 27300"
 xmlns:xlink="http://www.w3.org/1999/xlink">
 <defs>
  <style type="text/css">
   <![CDATA[
    .fil5 {fill:none}
    .fil4 {fill:url(#id1)}
    .fil2 {fill:url(#id2)}
    .fil3 {fill:url(#id3)}
    .fil1 {fill:url(#id4)}
    .fil0 {fill:url(#id5)}
   ]]>
  </style>
   <clipPath id="id0">
    <path d="M-0 -42.95l100000 0 0 27385.9 -100000 0 0 -27385.9z"/>
   </clipPath>
  <linearGradient id="id1" gradientUnits="userSpaceOnUse" x1="-8201.77" y1="27614.78" x2="74662" y2="13073.52">
   <stop offset="0" style="stop-opacity:1; stop-color:#F06277"/>
   <stop offset="0.211765" style="stop-opacity:1; stop-color:#F1AAB5"/>
   <stop offset="0.419608" style="stop-opacity:1; stop-color:#FEFEFE"/>
   <stop offset="0.721569" style="stop-opacity:1; stop-color:#F2BDC2"/>
   <stop offset="1" style="stop-opacity:1; stop-color:#F48991"/>
  </linearGradient>
  <linearGradient id="id2" gradientUnits="userSpaceOnUse" xlink:href="#id1" x1="118788.95" y1="27088.7" x2="33636.26" y2="12145.8">
  </linearGradient>
  <linearGradient id="id3" gradientUnits="userSpaceOnUse" x1="430.32" y1="26640.83" x2="64551.09" y2="15388.7">
   <stop offset="0" style="stop-opacity:1; stop-color:#F06277"/>
   <stop offset="0.231373" style="stop-opacity:1; stop-color:#F69A98"/>
   <stop offset="0.419608" style="stop-opacity:1; stop-color:#FEFEFE"/>
   <stop offset="0.6" style="stop-opacity:1; stop-color:#F7E2E9"/>
   <stop offset="0.839216" style="stop-opacity:1; stop-color:#F2C2D0"/>
   <stop offset="1" style="stop-opacity:1; stop-color:#F6AEC3"/>
  </linearGradient>
  <linearGradient id="id4" gradientUnits="userSpaceOnUse" xlink:href="#id3" x1="109819.63" y1="26440.8" x2="44457.13" y2="14970.75">
  </linearGradient>
  <linearGradient id="id5" gradientUnits="userSpaceOnUse" xlink:href="#id1" x1="125865.11" y1="22960.87" x2="-18204.29" y2="22960.87">
  </linearGradient>
 </defs>
 <g id="Capa_x0020_1">
  <metadata id="CorelCorpID_0Corel-Layer"/>
  <g>
  </g>
  <g style="clip-path:url(#id0)">
   <g>
    <path class="fil0" d="M-22.92 27413.47l110134.29 0 0 -2179.83c-218.97,-182.8 -410.01,-337.04 -516.17,-411.29 -381.18,-253.75 -937.75,-632.34 -1688.41,-1068.54 -1492.31,-874.57 -3731.25,-2043.43 -6654.87,-2975.49 -729.64,-231.78 -1499.37,-454.21 -2307.99,-647.78 -401.4,-109.17 -818.73,-183.95 -1239.86,-275.2 -425.8,-97.02 -840.55,-157.44 -1267.23,-230.8 -219.55,-33.63 -413.33,-78.56 -658.47,-104.19 -236.48,-29.09 -475.01,-57.92 -714.83,-87.46l-360.74 -44.08 -181.23 -21.89 -45.37 -5.79c9.63,0.76 -53.96,-4.98 15.92,0.72l-21.86 -1.87 -88.38 -6.99c-235.73,-19.17 -472.88,-38.66 -710.92,-57.92 -477.24,-35.1 -959.48,-86.66 -1447.76,-110.24 -488.71,-20.6 -982.44,-41.19 -1479.9,-62.33 -1993.18,-50.4 -4061.89,2.27 -6167.13,170.7 -2104.4,176.48 -4243.97,462.49 -6386.19,801.09 -2141.96,337.3 -4285.74,731.37 -6405.27,1113.69 -2120.45,381.57 -4214.39,708.24 -6256.4,1030.37 -1020.58,170.26 -2009.77,358.48 -2987.6,503.07 -242.92,34.03 -484.73,65.53 -725.3,95.2 -258.3,44.93 -526.14,91.38 -802.85,139.15 -307.84,61.22 -633.1,77.37 -966.3,120.16 -668.72,66.29 -1379.47,174.93 -2135.71,191.79 -377.42,18.2 -765.3,36.92 -1162.04,56.19 -198.58,7.43 -399.77,24.24 -602.86,24.15 -203.15,-2.04 -408.37,-4 -615.86,-5.96 -206.42,1.29 -414.93,0.89 -625.52,-1.15 -210.59,2.04 -419.14,2.44 -625.56,1.15 -207.49,1.96 -412.71,3.92 -615.81,5.96 -203.14,0.09 -404.38,-16.72 -602.91,-24.15 -396.74,-19.22 -784.67,-37.99 -1162.04,-56.23 -756.24,-16.82 -1466.99,-125.5 -2135.75,-191.79 -333.16,-42.8 -658.42,-58.9 -966.22,-120.16 -276.44,-47.69 -543.97,-94.14 -802.01,-139.02 -240.87,-29.72 -482.99,-61.17 -726.18,-95.25 -977.83,-144.67 -1974.38,-283.65 -2994.97,-453.95 -2042,-322.13 -4128.62,-698.01 -6249.03,-1079.48 -2119.48,-382.37 -4263.3,-776.4 -6405.27,-1113.74 -2142.22,-338.6 -4281.74,-624.61 -6386.23,-801.04 -2105.16,-168.48 -4173.95,-221.15 -6167.05,-170.79 -497.54,21.18 -991.23,41.77 -1479.94,62.37 -488.28,23.62 -970.48,75.14 -1447.76,110.29 -238.08,19.26 -475.19,38.74 -710.92,57.87l-88.43 6.99 -21.81 1.82c69.88,-5.6 6.29,0.14 15.92,-0.67l-45.32 5.74 -181.28 21.94 -360.74 44.08c-239.82,29.5 -478.34,58.33 -714.83,87.46 -245.18,25.63 -438.92,70.56 -658.51,104.19 -426.6,73.36 -841.39,133.78 -1267.23,230.8 -421.05,91.25 -838.46,165.99 -1239.82,275.2 -808.66,193.52 -1578.35,416 -2308.03,647.78 -2923.57,932.06 -5162.52,2100.92 -6654.83,2975.45 -750.58,436.24 -1307.14,814.83 -1688.46,1068.63 -57.11,39.95 -138.79,103.08 -236.17,181.33l0 2409.74z"/>
    <path class="fil1" d="M43397.56 21713.87c248.07,54.19 554.31,120.94 914.3,199.47 363.78,66.29 784.22,130.19 1252.15,208.34 234.71,36.49 479.43,82.62 740.12,117.06 262.09,28.26 536.25,57.6 822.12,88.28 285.29,30.55 582.28,62.47 890.41,95.54 306.26,39.91 631.07,38.71 962.04,60.79 664.37,26.82 1366.99,90.17 2114.04,68.09 372.07,-1.9 753.97,-3.63 1144.99,-5.81 195.08,-2.79 392.49,2.72 592.01,-7.14 199.66,-11.89 401.23,-23.57 605.32,-35.38 1630.35,-70.87 3387.69,-246.94 5229.07,-501.29 917.17,-147.73 1864.02,-279.29 2819.07,-449.64 964.33,-179.1 1955.94,-355.91 2944.26,-556.93 1985.65,-387.12 4037.5,-829.82 6121.92,-1279.34 2084.65,-450.72 4208.66,-916.7 6362.16,-1336.08 2152.43,-420.07 4333.62,-797.36 6517.44,-1073.05 2185.46,-268.39 4368.71,-428.23 6491.72,-483.46 531.49,-5.68 1058.25,-11.46 1580.49,-16.94 521.82,-2.68 1038.02,20.99 1550.12,30.5 256.11,6.42 510.81,12.91 763.74,19.32l94.8 2.31 23.77 0.43 61.67 4.48 45.66 2.75 182.18 11.3 363.51 22.32c241.38,14.73 481.12,29.47 719.65,44.18 231.4,10.25 503.74,46.17 751.09,68.43 505.08,51.88 1012.6,96.48 1481.8,168.99 475.59,68.65 948.4,123.72 1403.82,211.08 917.84,152.14 1795.16,335.48 2629.89,531.28 3345.22,788.56 5952.73,1856.51 7712.4,2674.43 811.23,374.18 548.83,123.37 824.83,875.75l1.25 3913.27c-450.68,-355.31 -1106.1,-865.49 -1342.17,-1015.77 -381.27,-230.95 -937.85,-575.5 -1688.44,-972.47 -1492.31,-795.9 -3731.3,-1859.6 -6654.85,-2707.85 -729.63,-210.91 -1499.37,-413.38 -2308.01,-589.52 -401.37,-99.36 -818.76,-167.4 -1239.83,-250.44 -425.85,-88.3 -840.62,-143.28 -1267.21,-210.04 -219.59,-30.6 -413.35,-71.51 -658.52,-94.81 -236.49,-26.5 -475.01,-52.73 -714.85,-79.6l-360.69 -40.12 -181.34 -19.95 -45.31 -5.23c9.62,0.74 -53.94,-4.49 15.93,0.61l-21.82 -1.64 -88.46 -6.38c-235.67,-17.42 -472.79,-35.15 -710.88,-52.67 -477.27,-31.98 -959.48,-78.88 -1447.76,-100.38 -488.73,-18.73 -982.4,-37.49 -1479.97,-56.75 -1993.1,-45.83 -4061.84,2.12 -6167.03,155.41 -2103.14,261.88 -4197.16,571.6 -6339.4,879.77 -2113.31,346.66 -4266.4,777.33 -6385.91,1125.29 -2120.43,347.17 -4312.25,697.99 -6354.26,991.12 -1020.66,170.13 -1729.1,316.58 -2814.36,413.69 -990.66,126.33 -1691.35,165.09 -3066.11,216.76 -1893.64,166.77 -3675.1,85.75 -5337.45,76.26 -207.48,1.79 -412.72,3.56 -615.85,5.44 -203.07,0.09 -404.28,-15.23 -602.88,-21.99 -396.72,-17.51 -784.61,-34.56 -1162.05,-51.15 -756.24,-15.31 -1466.96,-114.18 -2135.71,-174.52 -333.16,-38.96 -658.45,-53.63 -966.27,-109.35 -308.5,-48.47 -605.95,-95.48 -891.55,-140.69 -285.31,-44.89 -558.72,-88.17 -820.29,-129.43 -259.86,-47.5 -504.16,-106.41 -737.73,-154.83 -465.08,-101.87 -881.84,-187.01 -1239.72,-271.08 -353.28,-96.04 -653.86,-177.63 -897.42,-243.84 -487.35,-132.37 -747.23,-203.15 -747.23,-203.15 0,0 264.72,57.85 761.59,165.97z"/>
    <path class="fil2" d="M43754.38 21385.52c363.77,66.29 784.21,130.19 1252.14,208.34 234.71,36.49 479.44,82.62 740.12,117.06 262.09,28.26 536.25,57.6 822.12,88.28 285.29,30.55 582.28,62.47 890.42,95.54 306.25,39.91 631.07,38.71 962.03,60.79 664.37,26.82 1366.99,90.17 2114.05,68.09 372.06,-1.9 753.97,-3.63 1144.98,-5.81 195.08,-2.79 392.5,2.72 592.01,-7.14 199.67,-11.89 401.24,-23.57 605.33,-35.38 1630.34,-70.87 3387.68,-246.94 5229.06,-501.29 917.17,-147.73 1864.03,-279.29 2819.08,-449.64 964.32,-179.1 1955.94,-355.91 2944.25,-556.93 1985.66,-387.12 4037.5,-829.82 6121.92,-1279.34 2084.65,-450.72 4208.66,-916.7 6362.17,-1336.08 2152.42,-420.07 4333.61,-797.36 6517.43,-1073.05 2185.46,-268.39 4368.71,-428.23 6491.73,-483.46 531.48,-5.68 1058.25,-11.46 1580.49,-16.94 521.81,-2.68 1038.02,20.99 1550.11,30.5 256.11,6.42 510.81,12.91 763.74,19.32l94.81 2.31 23.77 0.43 61.66 4.48 45.67 2.75 182.17 11.3 363.51 22.32c241.38,14.73 481.13,29.47 719.66,44.18 231.39,10.25 503.73,46.17 751.09,68.43 505.07,51.88 1012.59,96.48 1481.8,168.99 475.58,68.65 948.39,123.72 1403.81,211.08 917.85,152.14 1795.17,335.48 2629.89,531.28 3345.23,788.56 5952.73,1856.51 7712.41,2674.43 811.22,374.18 929.3,609.9 1381.01,850.74l1.84 2247.49c-2120.92,-1622.43 -8932.8,-5966.37 -21718.43,-5656.9 -15812.66,382.7 -27993.64,8236.64 -46002.24,3715.66 151.76,-141.11 240.49,-86.72 737.35,21.41 248.08,54.19 267.05,58.23 627.04,136.76z"/>
    <path class="fil3" d="M65591.85 22164.2c-248.07,54.19 -561.25,93.06 -921.25,171.59 -363.77,66.29 -784.22,130.19 -1252.14,208.34 -234.71,36.49 -479.44,82.62 -740.12,117.06 -262.09,28.26 -536.25,57.6 -822.12,88.28 -285.29,30.55 -582.29,62.47 -890.42,95.54 -306.25,39.91 -631.07,38.71 -962.03,60.79 -664.37,26.82 -1366.99,90.17 -2114.05,68.09 -372.06,-1.9 -753.97,-3.63 -1144.99,-5.81 -195.08,-2.79 -392.49,2.72 -592.01,-7.14 -199.66,-11.89 -401.23,-23.57 -605.32,-35.38 -1630.34,-70.87 -3387.68,-246.94 -5229.07,-501.29 -917.16,-147.73 -1864.02,-279.29 -2819.07,-449.64 -964.33,-179.1 -1955.94,-355.91 -2944.26,-556.93 -1985.65,-387.12 -4037.5,-829.82 -6121.91,-1279.34 -2084.65,-450.72 -4208.66,-916.7 -6362.17,-1336.08 -2152.42,-420.07 -4333.62,-797.36 -6517.44,-1073.05 -2185.46,-268.39 -4368.71,-428.23 -6491.72,-483.46 -531.48,-5.68 -1058.25,-11.46 -1580.49,-16.94 -521.81,-2.68 -1038.02,20.99 -1550.11,30.5 -256.11,6.42 -510.81,12.91 -763.74,19.32l-94.81 2.31 -23.77 0.43 -61.67 4.48 -45.66 2.75 -182.17 11.3 -363.52 22.32c-241.37,14.73 -481.12,29.47 -719.65,44.18 -231.4,10.25 -503.74,46.17 -751.09,68.43 -505.07,51.88 -1012.6,96.48 -1481.8,168.99 -475.59,68.65 -948.39,123.72 -1403.81,211.08 -917.85,152.14 -1795.17,335.48 -2629.9,531.28 -3345.22,788.56 -4812.49,1347.02 -6572.16,2164.94 -509.26,228.3 -458.68,196.28 -836.4,369.71l-23.94 4122.87c100.53,-78.29 51.13,-41.02 119.63,-94.55 79.58,-60.19 58.76,-44.78 142.32,-103.93 381.27,-230.95 912.09,-586.86 1662.68,-983.83 1492.32,-795.9 3731.3,-1859.6 6654.85,-2707.85 729.64,-210.91 1499.37,-413.38 2308.02,-589.52 401.37,-99.36 818.76,-167.4 1239.82,-250.44 425.85,-88.3 840.63,-143.28 1267.22,-210.04 219.58,-30.6 413.35,-71.51 658.51,-94.81 236.49,-26.5 475.02,-52.73 714.85,-79.6l360.7 -40.12 181.33 -19.95 45.32 -5.23c-9.63,0.74 53.93,-4.49 -15.93,0.61l21.82 -1.64 88.45 -6.38c235.67,-17.42 472.79,-35.15 710.89,-52.67 477.26,-31.98 959.48,-78.88 1447.75,-100.38 488.73,-18.73 982.41,-37.49 1479.97,-56.75 1993.1,-45.83 4061.84,2.12 6167.03,155.41 2104.49,160.59 4244.01,420.86 6386.25,729.02 2141.94,306.98 4285.74,665.6 6405.25,1013.55 2120.43,347.18 4207.02,689.24 6249.01,982.38 1020.61,154.98 2017.14,281.49 2994.96,413.12 990.66,126.33 1963.4,212.95 2906.23,316.64 1893.65,166.75 3693.44,257.67 5355.79,248.18 207.48,1.79 412.72,3.56 615.85,5.44 203.08,0.09 404.29,-15.23 602.89,-21.99 396.71,-17.51 784.6,-34.56 1162.05,-51.15 756.23,-15.31 1466.95,-114.18 2135.7,-174.52 333.16,-38.96 658.46,-53.63 966.27,-109.35 308.51,-48.47 605.95,-95.48 891.56,-140.69 285.31,-44.89 558.73,-88.17 820.29,-129.43 259.86,-47.5 504.15,-106.41 737.73,-154.83 465.07,-101.87 881.84,-187.01 1239.72,-271.08 355.77,-76.76 653.5,-145.57 934.18,-200.59 525.92,-100.87 767.56,-137.5 767.56,-137.5 0,0 -314.88,-23.18 -811.74,84.95z"/>
    <path class="fil4" d="M64670.6 22335.79c-363.77,66.29 -784.22,130.19 -1252.14,208.34 -234.71,36.49 -479.44,82.62 -740.12,117.06 -262.09,28.26 -536.25,57.6 -822.12,88.28 -285.29,30.55 -582.29,62.47 -890.42,95.54 -306.25,39.91 -631.07,38.71 -962.03,60.79 -664.37,26.82 -1366.99,90.17 -2114.05,68.09 -372.06,-1.9 -753.97,-3.63 -1144.99,-5.81 -195.08,-2.79 -392.49,2.72 -592.01,-7.14 -199.66,-11.89 -401.23,-23.57 -605.32,-35.38 -1630.34,-70.87 -3387.68,-246.94 -5229.07,-501.29 -917.16,-147.73 -1864.02,-279.29 -2819.07,-449.64 -964.33,-179.1 -1955.94,-355.91 -2944.26,-556.93 -1985.65,-387.12 -4037.5,-829.82 -6121.91,-1279.34 -2084.65,-450.72 -4208.66,-916.7 -6362.17,-1336.08 -2152.42,-420.07 -4333.62,-797.36 -6517.44,-1073.05 -2185.46,-268.39 -4368.71,-428.23 -6491.72,-483.46 -531.48,-5.68 -1058.25,-11.46 -1580.49,-16.94 -521.81,-2.68 -1038.02,20.99 -1550.11,30.5 -256.11,6.42 -510.81,12.91 -763.74,19.32l-94.81 2.31 -23.77 0.43 -61.67 4.48 -45.66 2.75 -182.17 11.3 -363.52 22.32c-241.37,14.73 -481.12,29.47 -719.65,44.18 -231.4,10.25 -503.74,46.17 -751.09,68.43 -505.07,51.88 -1012.6,96.48 -1481.8,168.99 -475.59,68.65 -948.39,123.72 -1403.81,211.08 -917.85,152.14 -1795.17,335.48 -2629.9,531.28 -3345.22,788.56 -4953.86,1407.95 -6713.53,2225.86 -811.22,374.19 -243.42,84.94 -695.11,325.78l-11.54 1985.41c2120.88,-1622.43 7257.73,-4730.76 20043.35,-4421.29 15812.67,382.7 31983.19,7293.2 46157.87,3618.86 0,0 -234.08,10.47 -625.76,89.17 -288.42,57.43 -534.25,87.27 -894.25,165.8z"/>
   </g>
  </g>
  <polygon class="fil5" points="-0,-42.95 100000,-42.95 100000,27342.95 -0,27342.95 "/>
 </g>
</svg>
